<?xml version="1.0" encoding="UTF-8" standalone="no"?>
<svg
   xmlns:dc="http://purl.org/dc/elements/1.1/"
   xmlns:cc="http://creativecommons.org/ns#"
   xmlns:rdf="http://www.w3.org/1999/02/22-rdf-syntax-ns#"
   xmlns:svg="http://www.w3.org/2000/svg"
   xmlns="http://www.w3.org/2000/svg"
   version="1.1"
   id="svg3393"
   viewBox="0 0 354.3305 354.3305"
   height="100mm"
   width="100mm">
  <defs
     id="defs3395" />
  <metadata
     id="metadata3398">
    <rdf:RDF>
      <cc:Work
         rdf:about="">
        <dc:format>image/svg+xml</dc:format>
        <dc:type
           rdf:resource="http://purl.org/dc/dcmitype/StillImage" />
        <dc:title></dc:title>
      </cc:Work>
    </rdf:RDF>
  </metadata>
  <g
     transform="translate(0,-698.03147)"
     id="layer1">
    <polygon
       id="polygon29"
       points="722.425,467.241 600.614,501.011 479.142,467.29 452.071,163.67 749.521,163.67 "
       style="fill:#1572b6"
       transform="translate(-423.65314,545.73599)" />
    <polygon
       id="polygon31"
       points="600.798,475.199 699.225,447.911 722.382,188.496 600.798,188.496 "
       style="fill:#33a9dc"
       transform="translate(-423.65314,545.73599)" />
    <g
       id="g33"
       transform="translate(-423.65314,545.73599)">
      <polygon
         id="polygon35"
         points="684.127,335.732 600.797,335.732 600.797,298.496 650.072,298.496 653.475,260.364 600.797,260.364 600.797,223.125 600.926,223.125 694.172,223.125 693.279,233.116 "
         style="fill:#ffffff" />
      <polygon
         id="polygon37"
         points="600.857,395.25 559.385,384.051 556.733,354.353 536.582,354.353 519.354,354.353 524.57,412.82 600.848,433.996 601.02,433.948 601.02,395.204 "
         style="fill:#ebebeb" />
      <polygon
         id="polygon39"
         points="677.23,412.82 677.79,406.53 684.268,334.156 646.907,334.156 642.423,384.026 600.891,395.236 600.891,433.978 "
         style="fill:#ffffff" />
      <polygon
         id="polygon41"
         points="508.535,233.116 507.645,223.125 600.926,223.125 600.926,246.253 600.926,260.272 600.926,260.364 511.098,260.364 511.098,260.364 510.979,260.364 510.232,251.994 "
         style="fill:#ebebeb" />
      <polygon
         id="polygon43"
         points="557.406,308.491 556.516,298.5 600.797,298.5 600.797,321.629 600.797,335.646 600.797,335.738 559.969,335.738 559.969,335.738 559.85,335.738 559.104,327.369 "
         style="fill:#ebebeb" />
    </g>
  </g>
</svg>
