<?xml version="1.0" encoding="UTF-8" standalone="no"?>
<svg
   xmlns:dc="http://purl.org/dc/elements/1.1/"
   xmlns:cc="http://creativecommons.org/ns#"
   xmlns:rdf="http://www.w3.org/1999/02/22-rdf-syntax-ns#"
   xmlns:svg="http://www.w3.org/2000/svg"
   xmlns="http://www.w3.org/2000/svg"
   version="1.1"
   id="svg3393"
   viewBox="0 0 354.3305 354.3305"
   height="100mm"
   width="100mm">
  <defs
     id="defs3395" />
  <metadata
     id="metadata3398">
    <rdf:RDF>
      <cc:Work
         rdf:about="">
        <dc:format>image/svg+xml</dc:format>
        <dc:type
           rdf:resource="http://purl.org/dc/dcmitype/StillImage" />
        <dc:title></dc:title>
      </cc:Work>
    </rdf:RDF>
  </metadata>
  <g
     transform="translate(0,-698.03147)"
     id="layer1">
    <g
       id="g3"
       transform="translate(-22.752385,542.90321)">
      <polygon
         id="polygon5"
         points="48.313,163.646 345.763,163.646 318.665,467.217 196.856,500.986 75.383,467.266 "
         style="fill:#e44f26" />
      <polygon
         id="polygon7"
         points="318.623,188.471 197.038,188.471 197.038,475.175 295.465,447.887 "
         style="fill:#f1662a" />
      <polygon
         id="polygon9"
         points="103.663,225.709 104.555,235.7 113.707,338.316 197.038,338.316 197.038,301.08 147.763,301.08 144.359,262.948 197.038,262.948 197.038,225.709 196.909,225.709 "
         style="fill:#ebebeb" />
      <polygon
         id="polygon11"
         points="120.588,415.404 196.866,436.58 197.038,436.532 197.038,397.788 196.875,397.834 155.403,386.635 152.751,356.937 132.6,356.937 115.371,356.937 "
         style="fill:#ebebeb" />
      <polygon
         id="polygon21"
         points="273.249,415.404 273.808,409.114 282.559,311.079 283.467,301.08 273.433,301.08 196.909,301.08 196.909,338.316 242.763,338.316 238.441,386.61 196.909,397.82 196.909,436.562 "
         style="fill:#ffffff" />
      <polygon
         id="polygon23"
         points="286.856,262.948 287.603,254.578 289.299,235.7 290.19,225.709 196.909,225.709 196.909,248.837 196.909,262.856 196.909,262.948 286.736,262.948 286.736,262.948 "
         style="fill:#ffffff" />
    </g>
  </g>
</svg>
