<?xml version="1.0" encoding="UTF-8" standalone="no"?>
<!-- Created with Inkscape (http://www.inkscape.org/) -->

<svg
   xmlns:dc="http://purl.org/dc/elements/1.1/"
   xmlns:cc="http://creativecommons.org/ns#"
   xmlns:rdf="http://www.w3.org/1999/02/22-rdf-syntax-ns#"
   xmlns:svg="http://www.w3.org/2000/svg"
   xmlns="http://www.w3.org/2000/svg"
   xmlns:xlink="http://www.w3.org/1999/xlink"
   xmlns:sodipodi="http://sodipodi.sourceforge.net/DTD/sodipodi-0.dtd"
   xmlns:inkscape="http://www.inkscape.org/namespaces/inkscape"
   version="1.0"
   width="250"
   height="250"
   id="svg2031"
   inkscape:version="0.91 r13725"
   sodipodi:docname="Python_Logo.svg">
  <metadata
     id="metadata28">
    <rdf:RDF>
      <cc:Work
         rdf:about="">
        <dc:format>image/svg+xml</dc:format>
        <dc:type
           rdf:resource="http://purl.org/dc/dcmitype/StillImage" />
        <dc:title></dc:title>
      </cc:Work>
    </rdf:RDF>
  </metadata>
  <sodipodi:namedview
     pagecolor="#ffffff"
     bordercolor="#666666"
     borderopacity="1"
     objecttolerance="10"
     gridtolerance="10"
     guidetolerance="10"
     inkscape:pageopacity="0"
     inkscape:pageshadow="2"
     inkscape:window-width="1855"
     inkscape:window-height="1056"
     id="namedview26"
     showgrid="false"
     inkscape:zoom="0.78615385"
     inkscape:cx="34.980432"
     inkscape:cy="190.9002"
     inkscape:window-x="65"
     inkscape:window-y="24"
     inkscape:window-maximized="1"
     inkscape:current-layer="g2574" />
  <defs
     id="defs2033">
    <linearGradient
       id="linearGradient4671">
      <stop
         style="stop-color:#ffc836;stop-opacity:1"
         offset="0"
         id="stop4673" />
      <stop
         style="stop-color:#ffe873;stop-opacity:1"
         offset="1"
         id="stop4675" />
    </linearGradient>
    <linearGradient
       x1="224.23996"
       y1="144.75717"
       x2="-65.308502"
       y2="144.75717"
       id="linearGradient1874"
       xlink:href="#linearGradient4671"
       gradientUnits="userSpaceOnUse"
       gradientTransform="translate(-2.1185237,75.207591)" />
    <linearGradient
       id="linearGradient4689">
      <stop
         style="stop-color:#366a96;stop-opacity:1"
         offset="0"
         id="stop4691" />
      <stop
         style="stop-color:#3679b0;stop-opacity:1"
         offset="1"
         id="stop4693" />
    </linearGradient>
    <linearGradient
       x1="172.94208"
       y1="77.475983"
       x2="26.670298"
       y2="76.313133"
       id="linearGradient1872"
       xlink:href="#linearGradient4689"
       gradientUnits="userSpaceOnUse"
       gradientTransform="translate(-2.1185237,75.207591)" />
  </defs>
  <g
     id="layer1"
     transform="translate(0,-100)">
    <g
       transform="matrix(1.200851,0,0,1.200851,-25.00003,33.18467)"
       id="g1858">
      <g
         transform="translate(2.702726,-34.93942)"
         id="g2574">
        <path
           d="m 75.551835,122.27575 c 0,-13.62285 3.652759,-21.03424 23.822341,-24.563483 13.693444,-2.39988 31.251394,-2.699865 47.627044,0 12.93465,2.135189 23.82234,11.770003 23.82234,24.563483 l 0,44.94482 c 0,13.1817 -10.57006,23.98116 -23.82234,23.98116 l -47.627044,0 c -16.163899,0 -29.78675,13.78166 -29.78675,29.36324 l 0,21.56363 -16.375655,0 c -13.852252,0 -21.916556,-9.98773 -25.304622,-23.96351 -4.570361,-18.77553 -4.376253,-29.96321 0,-47.94467 3.793928,-15.68745 15.916854,-23.96351 29.769105,-23.96351 l 17.875581,0 47.644685,0 0,-5.9997 -47.644685,0 0,-17.98146 0,0 z"
           style="fill:url(#linearGradient1872);fill-opacity:1"
           id="path1948"
           inkscape:connector-curvature="0" />
        <path
           d="m 170.82356,266.10976 c 0,13.62285 -11.82294,20.52251 -23.82234,23.96351 -18.05204,5.18798 -32.53955,4.3939 -47.627044,0 -12.599371,-3.6704 -23.822341,-11.17003 -23.822341,-23.96351 l 0,-44.94482 c 0,-12.93465 10.781815,-23.98116 23.822341,-23.98116 l 47.627044,0 c 15.86392,0 29.78675,-13.71108 29.78675,-29.96321 l 0,-20.96366 17.85794,0 c 13.86989,0 20.39898,10.30537 23.82234,23.96351 4.76447,18.96964 4.97622,33.15717 0,47.94467 -4.81741,14.36399 -9.97009,23.96351 -23.82234,23.96351 l -23.82235,0 -47.62704,0 0,5.9997 47.62704,0 0,17.98146 z"
           style="fill:url(#linearGradient1874);fill-opacity:1"
           id="path1950"
           inkscape:connector-curvature="0" />
      </g>
    </g>
  </g>
</svg>
